<svg width="74" height="158" viewBox="0 0 74 158" fill="none" xmlns="http://www.w3.org/2000/svg">
<path opacity="0.3" d="M33.1349 0.5V87.9299C29.2435 84.6085 26.6789 82.7144 21.6227 82.573C20.5417 82.5464 19.4633 82.5952 18.3947 82.7264C6.56979 84.1823 -1.55423 94.9346 0.251061 106.743C0.764161 110.076 2.05113 113.267 4.00792 116.059L3.92129 116.068L36.976 157.91L36.9783 157.915L36.9829 157.91L69.1349 117.211C69.203 117.126 69.2709 117.039 69.3378 116.953L70.0376 116.068L69.9898 116.064C71.949 113.27 73.2353 110.078 73.7489 106.743C75.5542 94.9345 67.4325 84.18 55.6075 82.7241C54.5389 82.592 53.4606 82.5397 52.3795 82.5707C47.3195 82.7148 44.7514 84.6157 40.8605 87.9437V0.5H33.1349Z" fill="#21A29A"/>
</svg>
