<svg width="148" height="15" viewBox="0 0 148 15" fill="none" xmlns="http://www.w3.org/2000/svg">
<path d="M0.306934 10.076C0.5216 10.0667 0.698934 10.0387 0.838934 9.992C0.988267 9.94533 1.10027 9.838 1.17493 9.67C1.25893 9.502 1.30093 9.23133 1.30093 8.858V3.496C1.30093 3.244 1.3056 3.00133 1.31493 2.768C1.3336 2.53467 1.3476 2.35733 1.35693 2.236C1.2076 2.24533 1.02093 2.25467 0.796934 2.264C0.572934 2.264 0.4096 2.26867 0.306934 2.278V1.2L4.38093 1.186C5.30493 1.186 6.10293 1.326 6.77493 1.606C7.45627 1.87667 8.0116 2.24533 8.44093 2.712C8.8796 3.17867 9.20627 3.70133 9.42093 4.28C9.6356 4.84933 9.74293 5.42333 9.74293 6.002C9.74293 6.57133 9.64027 7.15 9.43493 7.738C9.23893 8.326 8.92627 8.86733 8.49693 9.362C8.0676 9.84733 7.5076 10.244 6.81693 10.552C6.12627 10.8507 5.29093 11 4.31093 11H0.306934V10.076ZM3.33093 8.704C3.33093 8.956 3.32627 9.19867 3.31693 9.432C3.3076 9.66533 3.2936 9.84267 3.27493 9.964C3.36827 9.95467 3.49427 9.95467 3.65293 9.964C3.82093 9.964 3.9936 9.96867 4.17093 9.978C4.34827 9.978 4.49293 9.978 4.60493 9.978C5.11827 9.978 5.55693 9.87533 5.92093 9.67C6.29427 9.46467 6.5976 9.18933 6.83093 8.844C7.0736 8.48933 7.25093 8.09267 7.36293 7.654C7.47493 7.21533 7.53093 6.76267 7.53093 6.296C7.53093 5.344 7.40027 4.56467 7.13893 3.958C6.8776 3.35133 6.50893 2.89867 6.03293 2.6C5.56627 2.30133 5.00627 2.14267 4.35293 2.124C4.12893 2.11467 3.9376 2.138 3.77893 2.194C3.6296 2.24067 3.5176 2.348 3.44293 2.516C3.36827 2.684 3.33093 2.95 3.33093 3.314V8.704ZM14.122 11.224C13.4406 11.224 12.8386 11.0747 12.316 10.776C11.7933 10.468 11.3873 10.0387 11.098 9.488C10.8086 8.928 10.664 8.27 10.664 7.514C10.664 6.86067 10.8086 6.24933 11.098 5.68C11.3873 5.11067 11.7933 4.65333 12.316 4.308C12.848 3.95333 13.464 3.776 14.164 3.776C14.556 3.776 14.9386 3.832 15.312 3.944C15.6853 4.04667 16.0213 4.22867 16.32 4.49C16.628 4.75133 16.8706 5.106 17.048 5.554C17.2346 6.002 17.3233 6.562 17.314 7.234L12.722 7.318C12.722 7.822 12.7826 8.27467 12.904 8.676C13.0346 9.07733 13.2446 9.39467 13.534 9.628C13.8233 9.86133 14.2106 9.978 14.696 9.978C14.8826 9.978 15.0926 9.94533 15.326 9.88C15.5686 9.81467 15.8113 9.70733 16.054 9.558C16.306 9.39933 16.5393 9.18933 16.754 8.928L17.384 9.516C17.048 9.992 16.6886 10.356 16.306 10.608C15.9233 10.8507 15.5406 11.014 15.158 11.098C14.7846 11.182 14.4393 11.224 14.122 11.224ZM12.806 6.338H15.382C15.3726 5.946 15.3166 5.638 15.214 5.414C15.1206 5.18067 14.99 5.01267 14.822 4.91C14.654 4.80733 14.458 4.756 14.234 4.756C13.8233 4.756 13.5013 4.90533 13.268 5.204C13.0346 5.49333 12.8806 5.87133 12.806 6.338ZM21.5572 11.224C21.1559 11.224 20.7639 11.1727 20.3812 11.07C19.9985 10.9673 19.6999 10.8367 19.4852 10.678L19.5132 11.098H18.4492L18.3932 8.69H19.3032C19.3312 8.97 19.4432 9.22667 19.6392 9.46C19.8352 9.69333 20.0919 9.88 20.4092 10.02C20.7265 10.1507 21.0812 10.216 21.4732 10.216C21.6319 10.216 21.7812 10.1927 21.9212 10.146C22.0705 10.0993 22.1919 10.0247 22.2852 9.922C22.3879 9.81 22.4392 9.67467 22.4392 9.516C22.4392 9.33867 22.3739 9.194 22.2432 9.082C22.1219 8.97 21.9399 8.86267 21.6972 8.76C21.4639 8.65733 21.1699 8.54067 20.8152 8.41C20.5259 8.298 20.2319 8.18133 19.9332 8.06C19.6439 7.93867 19.3732 7.794 19.1212 7.626C18.8785 7.44867 18.6825 7.234 18.5332 6.982C18.3839 6.72067 18.3092 6.40333 18.3092 6.03C18.3092 5.75933 18.3605 5.49333 18.4632 5.232C18.5659 4.96133 18.7245 4.71867 18.9392 4.504C19.1539 4.28 19.4245 4.10267 19.7512 3.972C20.0872 3.84133 20.4839 3.776 20.9412 3.776C21.1932 3.776 21.4779 3.818 21.7952 3.902C22.1219 3.97667 22.3972 4.09333 22.6212 4.252V3.846H23.6852V6.324H22.7752C22.7192 5.99733 22.6025 5.71733 22.4252 5.484C22.2572 5.25067 22.0379 5.07333 21.7672 4.952C21.4965 4.82133 21.1932 4.756 20.8572 4.756C20.6239 4.756 20.4092 4.812 20.2132 4.924C20.0265 5.036 19.9332 5.22733 19.9332 5.498C19.9332 5.71267 20.0079 5.88533 20.1572 6.016C20.3065 6.13733 20.5119 6.24 20.7732 6.324C21.0345 6.408 21.3239 6.506 21.6412 6.618C22.1172 6.77667 22.5372 6.96333 22.9012 7.178C23.2745 7.39267 23.5685 7.654 23.7832 7.962C23.9979 8.26067 24.1052 8.62933 24.1052 9.068C24.1052 9.55333 23.9839 9.95467 23.7412 10.272C23.4985 10.5893 23.1812 10.8273 22.7892 10.986C22.4065 11.1447 21.9959 11.224 21.5572 11.224ZM28.4501 11.224C27.7688 11.224 27.1668 11.0747 26.6441 10.776C26.1214 10.468 25.7154 10.0387 25.4261 9.488C25.1368 8.928 24.9921 8.27 24.9921 7.514C24.9921 6.86067 25.1368 6.24933 25.4261 5.68C25.7154 5.11067 26.1214 4.65333 26.6441 4.308C27.1761 3.95333 27.7921 3.776 28.4921 3.776C28.8841 3.776 29.2668 3.832 29.6401 3.944C30.0134 4.04667 30.3494 4.22867 30.6481 4.49C30.9561 4.75133 31.1988 5.106 31.3761 5.554C31.5628 6.002 31.6514 6.562 31.6421 7.234L27.0501 7.318C27.0501 7.822 27.1108 8.27467 27.2321 8.676C27.3628 9.07733 27.5728 9.39467 27.8621 9.628C28.1514 9.86133 28.5388 9.978 29.0241 9.978C29.2108 9.978 29.4208 9.94533 29.6541 9.88C29.8968 9.81467 30.1394 9.70733 30.3821 9.558C30.6341 9.39933 30.8674 9.18933 31.0821 8.928L31.7121 9.516C31.3761 9.992 31.0168 10.356 30.6341 10.608C30.2514 10.8507 29.8688 11.014 29.4861 11.098C29.1128 11.182 28.7674 11.224 28.4501 11.224ZM27.1341 6.338H29.7101C29.7008 5.946 29.6448 5.638 29.5421 5.414C29.4488 5.18067 29.3181 5.01267 29.1501 4.91C28.9821 4.80733 28.7861 4.756 28.5621 4.756C28.1514 4.756 27.8294 4.90533 27.5961 5.204C27.3628 5.49333 27.2088 5.87133 27.1341 6.338ZM32.6653 11V10.09C32.9266 10.09 33.1133 10.0387 33.2253 9.936C33.3373 9.83333 33.4073 9.68867 33.4353 9.502C33.4726 9.306 33.4913 9.08667 33.4913 8.844V6.492C33.4913 6.324 33.496 6.13733 33.5053 5.932C33.5146 5.71733 33.5286 5.50733 33.5473 5.302C33.398 5.31133 33.2206 5.32067 33.0153 5.33C32.8193 5.33 32.67 5.33467 32.5673 5.344V4.28C32.9966 4.28 33.3606 4.25667 33.6593 4.21C33.958 4.16333 34.1913 4.10733 34.3593 4.042C34.5366 3.97667 34.658 3.916 34.7233 3.86H35.4093C35.428 3.98133 35.4373 4.07 35.4373 4.126C35.4373 4.182 35.4373 4.238 35.4373 4.294C35.4466 4.34067 35.4653 4.42933 35.4933 4.56C35.68 4.41067 35.8946 4.28 36.1373 4.168C36.38 4.04667 36.6226 3.95333 36.8653 3.888C37.108 3.81333 37.3226 3.776 37.5093 3.776C38.368 3.776 38.9746 4.02333 39.3293 4.518C39.6933 5.00333 39.8753 5.78733 39.8753 6.87V8.746C39.8753 8.87667 39.8706 9.06333 39.8613 9.306C39.852 9.53933 39.838 9.76333 39.8193 9.978C39.978 9.95933 40.146 9.95 40.3233 9.95C40.5006 9.94067 40.636 9.936 40.7293 9.936V11H37.0613V10.09C37.3226 10.09 37.5093 10.0387 37.6213 9.936C37.7426 9.83333 37.8173 9.68867 37.8453 9.502C37.8826 9.306 37.9013 9.08667 37.9013 8.844L37.8873 6.856C37.8873 6.24933 37.7986 5.80133 37.6213 5.512C37.4533 5.21333 37.164 5.064 36.7533 5.064C36.52 5.064 36.2866 5.11533 36.0533 5.218C35.8293 5.32067 35.638 5.442 35.4793 5.582C35.4793 5.71267 35.4793 5.848 35.4793 5.988C35.4793 6.11867 35.4793 6.24933 35.4793 6.38V8.746C35.4793 8.87667 35.4746 9.06333 35.4653 9.306C35.456 9.53933 35.442 9.76333 35.4233 9.978C35.5726 9.95933 35.736 9.95 35.9133 9.95C36.1 9.94067 36.24 9.936 36.3333 9.936V11H32.6653ZM43.9646 11.042L41.7526 6.184C41.65 5.95067 41.5753 5.77333 41.5286 5.652C41.4913 5.53067 41.4633 5.428 41.4446 5.344C41.4353 5.25067 41.4166 5.148 41.3886 5.036L40.8706 5.064V4H44.1466V4.896C43.9506 4.90533 43.82 4.96133 43.7546 5.064C43.6893 5.16667 43.666 5.302 43.6846 5.47C43.7033 5.62867 43.7453 5.80133 43.8106 5.988L44.5386 7.78C44.6133 7.95733 44.688 8.13933 44.7626 8.326C44.8373 8.51267 44.912 8.69933 44.9866 8.886H45.0006C45.0753 8.69 45.1453 8.494 45.2106 8.298C45.2853 8.102 45.3553 7.906 45.4206 7.71L46.0226 6.002C46.1066 5.76867 46.1813 5.582 46.2466 5.442C46.3213 5.302 46.4006 5.15733 46.4846 5.008L45.6166 5.064V4H48.2766V4.896C48.062 4.93333 47.8706 5.05467 47.7026 5.26C47.5346 5.456 47.39 5.68 47.2686 5.932C47.1473 6.17467 47.0493 6.38933 46.9746 6.576L45.1826 11.042H43.9646ZM52.1598 11.224C51.4878 11.224 50.8811 11.0793 50.3398 10.79C49.7984 10.5007 49.3691 10.09 49.0518 9.558C48.7438 9.01667 48.5898 8.382 48.5898 7.654C48.5898 6.87933 48.7484 6.20267 49.0658 5.624C49.3924 5.036 49.8218 4.58333 50.3538 4.266C50.8951 3.93933 51.4831 3.776 52.1178 3.776C52.7898 3.776 53.3918 3.92067 53.9238 4.21C54.4558 4.49933 54.8758 4.91467 55.1838 5.456C55.4918 5.988 55.6458 6.62733 55.6458 7.374C55.6458 8.158 55.4964 8.83933 55.1978 9.418C54.8991 9.99667 54.4884 10.4447 53.9658 10.762C53.4431 11.07 52.8411 11.224 52.1598 11.224ZM52.2158 10.23C52.5891 10.2207 52.8691 10.09 53.0558 9.838C53.2518 9.586 53.3871 9.26867 53.4618 8.886C53.5364 8.50333 53.5738 8.116 53.5738 7.724C53.5738 7.37867 53.5458 7.02867 53.4898 6.674C53.4431 6.31933 53.3638 5.99733 53.2518 5.708C53.1398 5.41867 52.9858 5.18533 52.7898 5.008C52.6031 4.83067 52.3698 4.74667 52.0898 4.756C51.7258 4.76533 51.4364 4.896 51.2218 5.148C51.0164 5.4 50.8671 5.71733 50.7738 6.1C50.6898 6.47333 50.6478 6.86533 50.6478 7.276C50.6478 7.752 50.6991 8.21867 50.8018 8.676C50.9044 9.13333 51.0678 9.51133 51.2918 9.81C51.5251 10.0993 51.8331 10.2393 52.2158 10.23ZM56.3808 10.09C56.6421 10.09 56.8288 10.0387 56.9408 9.936C57.0621 9.83333 57.1368 9.68867 57.1648 9.502C57.1928 9.306 57.2068 9.08667 57.2068 8.844V3.09C57.2068 2.922 57.2114 2.73067 57.2208 2.516C57.2301 2.292 57.2441 2.07733 57.2628 1.872C57.1134 1.88133 56.9361 1.89067 56.7308 1.9C56.5348 1.9 56.3854 1.90467 56.2828 1.914V0.85C56.7214 0.85 57.0854 0.826666 57.3748 0.78C57.6734 0.733333 57.9068 0.677333 58.0748 0.611999C58.2521 0.546666 58.3734 0.486 58.4388 0.429999H59.1948V8.746C59.1948 8.87667 59.1901 9.06333 59.1808 9.306C59.1714 9.53933 59.1574 9.76333 59.1388 9.978C59.2974 9.95933 59.4654 9.95 59.6428 9.95C59.8201 9.94067 59.9554 9.936 60.0488 9.936V11H56.3808V10.09ZM63.4607 11.042L61.2487 6.184C61.146 5.95067 61.0714 5.77333 61.0247 5.652C60.9874 5.53067 60.9594 5.428 60.9407 5.344C60.9314 5.25067 60.9127 5.148 60.8847 5.036L60.3667 5.064V4H63.6427V4.896C63.4467 4.90533 63.316 4.96133 63.2507 5.064C63.1854 5.16667 63.162 5.302 63.1807 5.47C63.1994 5.62867 63.2414 5.80133 63.3067 5.988L64.0347 7.78C64.1094 7.95733 64.184 8.13933 64.2587 8.326C64.3334 8.51267 64.408 8.69933 64.4827 8.886H64.4967C64.5714 8.69 64.6414 8.494 64.7067 8.298C64.7814 8.102 64.8514 7.906 64.9167 7.71L65.5187 6.002C65.6027 5.76867 65.6774 5.582 65.7427 5.442C65.8174 5.302 65.8967 5.15733 65.9807 5.008L65.1127 5.064V4H67.7727V4.896C67.558 4.93333 67.3667 5.05467 67.1987 5.26C67.0307 5.456 66.886 5.68 66.7647 5.932C66.6434 6.17467 66.5454 6.38933 66.4707 6.576L64.6787 11.042H63.4607ZM68.3899 10.09C68.6513 10.09 68.8379 10.0387 68.9499 9.936C69.0619 9.83333 69.1319 9.68867 69.1599 9.502C69.1973 9.306 69.2159 9.08667 69.2159 8.844V6.52C69.2159 6.352 69.2206 6.16067 69.2299 5.946C69.2393 5.722 69.2533 5.50733 69.2719 5.302C69.1226 5.31133 68.9453 5.32067 68.7399 5.33C68.5439 5.33 68.3946 5.33467 68.2919 5.344V4.28C68.7213 4.28 69.0853 4.25667 69.3839 4.21C69.6826 4.16333 69.9159 4.10733 70.0839 4.042C70.2613 3.97667 70.3826 3.916 70.4479 3.86H71.2039V8.746C71.2039 8.87667 71.1993 9.06333 71.1899 9.306C71.1806 9.53933 71.1666 9.76333 71.1479 9.978C71.2973 9.95933 71.4606 9.95 71.6379 9.95C71.8246 9.94067 71.9646 9.936 72.0579 9.936V11H68.3899V10.09ZM70.1399 2.754C69.8226 2.754 69.5613 2.642 69.3559 2.418C69.1506 2.194 69.0479 1.92333 69.0479 1.606C69.0479 1.28867 69.1553 1.018 69.3699 0.794C69.5846 0.57 69.8366 0.458 70.1259 0.458C70.4246 0.458 70.6719 0.57 70.8679 0.794C71.0733 1.018 71.1759 1.28867 71.1759 1.606C71.1759 1.92333 71.0826 2.194 70.8959 2.418C70.7093 2.642 70.4573 2.754 70.1399 2.754ZM75.672 11.224C75.112 11.224 74.6173 11.0793 74.188 10.79C73.768 10.5007 73.4367 10.09 73.194 9.558C72.9607 9.026 72.844 8.40067 72.844 7.682C72.844 6.926 72.9887 6.254 73.278 5.666C73.5673 5.078 73.9733 4.616 74.496 4.28C75.0187 3.944 75.6253 3.776 76.316 3.776C76.568 3.776 76.792 3.804 76.988 3.86C77.1933 3.90667 77.3847 3.96267 77.562 4.028V3.104C77.562 2.97333 77.5667 2.78667 77.576 2.544C77.5853 2.30133 77.5993 2.07733 77.618 1.872C77.4687 1.88133 77.2913 1.89067 77.086 1.9C76.8807 1.90933 76.7267 1.914 76.624 1.914V0.85C77.0627 0.85 77.4267 0.826666 77.716 0.78C78.0147 0.733333 78.248 0.677333 78.416 0.611999C78.5933 0.546666 78.7147 0.486 78.78 0.429999H79.536V8.746C79.536 8.87667 79.5313 9.06333 79.522 9.306C79.5127 9.53933 79.4987 9.76333 79.48 9.978C79.6387 9.95933 79.8067 9.95 79.984 9.95C80.1613 9.94067 80.2967 9.936 80.39 9.936V11H77.73C77.7207 10.8973 77.7067 10.79 77.688 10.678C77.6787 10.566 77.6647 10.4587 77.646 10.356C77.338 10.6733 77.0207 10.8973 76.694 11.028C76.3673 11.1587 76.0267 11.224 75.672 11.224ZM76.4 9.95C76.6427 9.95 76.8667 9.88933 77.072 9.768C77.2773 9.63733 77.4407 9.474 77.562 9.278C77.562 9.138 77.562 8.998 77.562 8.858C77.562 8.718 77.562 8.578 77.562 8.438V5.078C77.4687 5.00333 77.3287 4.94267 77.142 4.896C76.9553 4.84 76.764 4.812 76.568 4.812C76.1387 4.82133 75.8027 4.95667 75.56 5.218C75.3173 5.47933 75.1447 5.81067 75.042 6.212C74.9487 6.61333 74.902 7.03333 74.902 7.472C74.902 7.864 74.9487 8.25133 75.042 8.634C75.1447 9.01667 75.3033 9.334 75.518 9.586C75.742 9.82867 76.036 9.95 76.4 9.95ZM84.7398 11.224C84.0678 11.224 83.4612 11.0793 82.9198 10.79C82.3785 10.5007 81.9492 10.09 81.6318 9.558C81.3238 9.01667 81.1698 8.382 81.1698 7.654C81.1698 6.87933 81.3285 6.20267 81.6458 5.624C81.9725 5.036 82.4018 4.58333 82.9338 4.266C83.4752 3.93933 84.0632 3.776 84.6978 3.776C85.3698 3.776 85.9718 3.92067 86.5038 4.21C87.0358 4.49933 87.4558 4.91467 87.7638 5.456C88.0718 5.988 88.2258 6.62733 88.2258 7.374C88.2258 8.158 88.0765 8.83933 87.7778 9.418C87.4792 9.99667 87.0685 10.4447 86.5458 10.762C86.0232 11.07 85.4212 11.224 84.7398 11.224ZM84.7958 10.23C85.1692 10.2207 85.4492 10.09 85.6358 9.838C85.8318 9.586 85.9672 9.26867 86.0418 8.886C86.1165 8.50333 86.1538 8.116 86.1538 7.724C86.1538 7.37867 86.1258 7.02867 86.0698 6.674C86.0232 6.31933 85.9438 5.99733 85.8318 5.708C85.7198 5.41867 85.5658 5.18533 85.3698 5.008C85.1832 4.83067 84.9498 4.74667 84.6698 4.756C84.3058 4.76533 84.0165 4.896 83.8018 5.148C83.5965 5.4 83.4472 5.71733 83.3538 6.1C83.2698 6.47333 83.2278 6.86533 83.2278 7.276C83.2278 7.752 83.2792 8.21867 83.3818 8.676C83.4845 9.13333 83.6478 9.51133 83.8718 9.81C84.1052 10.0993 84.4132 10.2393 84.7958 10.23ZM92.7773 14.57V13.66C93.0386 13.66 93.2253 13.6087 93.3373 13.506C93.4586 13.4033 93.5333 13.254 93.5613 13.058C93.5986 12.8713 93.6173 12.6567 93.6173 12.414V6.492C93.6173 6.324 93.6219 6.13733 93.6313 5.932C93.6406 5.71733 93.6546 5.50733 93.6733 5.302C93.5239 5.31133 93.3466 5.32067 93.1413 5.33C92.9359 5.33 92.7819 5.33467 92.6793 5.344V4.28C93.1179 4.28 93.4819 4.25667 93.7713 4.21C94.0699 4.16333 94.3033 4.10733 94.4713 4.042C94.6486 3.97667 94.7699 3.916 94.8353 3.86H95.5213C95.5399 3.95333 95.5539 4.07 95.5633 4.21C95.5726 4.34067 95.5819 4.448 95.5913 4.532C95.9179 4.252 96.2399 4.056 96.5573 3.944C96.8839 3.832 97.1919 3.776 97.4813 3.776C98.0413 3.776 98.5313 3.92067 98.9513 4.21C99.3806 4.49933 99.7119 4.91 99.9453 5.442C100.188 5.974 100.309 6.59933 100.309 7.318C100.309 8.06467 100.165 8.73667 99.8753 9.334C99.5859 9.922 99.1799 10.384 98.6573 10.72C98.1439 11.056 97.5373 11.224 96.8373 11.224C96.5853 11.224 96.3566 11.196 96.1513 11.14C95.9553 11.0933 95.7686 11.0373 95.5913 10.972V12.316C95.5913 12.4467 95.5866 12.6287 95.5773 12.862C95.5773 13.1047 95.5679 13.3333 95.5493 13.548C95.6986 13.5293 95.8619 13.5153 96.0393 13.506C96.2166 13.506 96.3519 13.506 96.4453 13.506V14.57H92.7773ZM96.6133 10.174C97.0426 10.1647 97.3739 10.0387 97.6073 9.796C97.8499 9.544 98.0179 9.21733 98.1113 8.816C98.2046 8.41467 98.2513 7.98533 98.2513 7.528C98.2513 7.09867 98.1999 6.69267 98.0973 6.31C97.9946 5.92733 97.8313 5.61933 97.6073 5.386C97.3833 5.14333 97.0893 5.02667 96.7253 5.036C96.4919 5.04533 96.2773 5.106 96.0813 5.218C95.8853 5.32067 95.7219 5.46533 95.5913 5.652C95.5913 5.94133 95.5913 6.23067 95.5913 6.52C95.5913 6.8 95.5913 7.08 95.5913 7.36C95.5913 7.64 95.5913 7.92467 95.5913 8.214C95.5913 8.494 95.5913 8.77867 95.5913 9.068C95.5913 9.348 95.5913 9.63267 95.5913 9.922C95.6939 9.98733 95.8386 10.048 96.0253 10.104C96.2119 10.16 96.4079 10.1833 96.6133 10.174ZM104.755 11.224C104.083 11.224 103.477 11.0793 102.935 10.79C102.394 10.5007 101.965 10.09 101.647 9.558C101.339 9.01667 101.185 8.382 101.185 7.654C101.185 6.87933 101.344 6.20267 101.661 5.624C101.988 5.036 102.417 4.58333 102.949 4.266C103.491 3.93933 104.079 3.776 104.713 3.776C105.385 3.776 105.987 3.92067 106.519 4.21C107.051 4.49933 107.471 4.91467 107.779 5.456C108.087 5.988 108.241 6.62733 108.241 7.374C108.241 8.158 108.092 8.83933 107.793 9.418C107.495 9.99667 107.084 10.4447 106.561 10.762C106.039 11.07 105.437 11.224 104.755 11.224ZM104.811 10.23C105.185 10.2207 105.465 10.09 105.651 9.838C105.847 9.586 105.983 9.26867 106.057 8.886C106.132 8.50333 106.169 8.116 106.169 7.724C106.169 7.37867 106.141 7.02867 106.085 6.674C106.039 6.31933 105.959 5.99733 105.847 5.708C105.735 5.41867 105.581 5.18533 105.385 5.008C105.199 4.83067 104.965 4.74667 104.685 4.756C104.321 4.76533 104.032 4.896 103.817 5.148C103.612 5.4 103.463 5.71733 103.369 6.1C103.285 6.47333 103.243 6.86533 103.243 7.276C103.243 7.752 103.295 8.21867 103.397 8.676C103.5 9.13333 103.663 9.51133 103.887 9.81C104.121 10.0993 104.429 10.2393 104.811 10.23ZM109.255 10.09C109.516 10.09 109.703 10.0387 109.815 9.936C109.927 9.83333 109.997 9.68867 110.025 9.502C110.062 9.306 110.081 9.08667 110.081 8.844V6.492C110.081 6.324 110.086 6.13733 110.095 5.932C110.104 5.71733 110.118 5.50733 110.137 5.302C109.988 5.31133 109.81 5.32067 109.605 5.33C109.409 5.33 109.26 5.33467 109.157 5.344V4.28H109.717C110.081 4.28 110.412 4.23333 110.711 4.14C111.019 4.04667 111.22 3.95333 111.313 3.86H111.999C112.018 3.95333 112.032 4.13067 112.041 4.392C112.05 4.644 112.055 4.868 112.055 5.064C112.307 4.756 112.545 4.50867 112.769 4.322C112.993 4.13533 113.212 4 113.427 3.916C113.651 3.82267 113.875 3.776 114.099 3.776C114.426 3.776 114.71 3.86933 114.953 4.056C115.196 4.23333 115.317 4.52733 115.317 4.938C115.317 5.078 115.284 5.22733 115.219 5.386C115.154 5.53533 115.051 5.66133 114.911 5.764C114.771 5.86667 114.58 5.918 114.337 5.918C114.15 5.918 113.959 5.862 113.763 5.75C113.567 5.638 113.455 5.42333 113.427 5.106C113.24 5.106 113.054 5.18533 112.867 5.344C112.68 5.49333 112.512 5.67533 112.363 5.89C112.223 6.09533 112.125 6.28667 112.069 6.464V8.746C112.069 8.87667 112.064 9.06333 112.055 9.306C112.046 9.53933 112.032 9.76333 112.013 9.978C112.162 9.95933 112.326 9.95 112.503 9.95C112.69 9.94067 112.83 9.936 112.923 9.936V11H109.255V10.09ZM122.977 11.224C122.296 11.224 121.694 11.0747 121.171 10.776C120.649 10.468 120.243 10.0387 119.953 9.488C119.664 8.928 119.519 8.27 119.519 7.514C119.519 6.86067 119.664 6.24933 119.953 5.68C120.243 5.11067 120.649 4.65333 121.171 4.308C121.703 3.95333 122.319 3.776 123.019 3.776C123.411 3.776 123.794 3.832 124.167 3.944C124.541 4.04667 124.877 4.22867 125.175 4.49C125.483 4.75133 125.726 5.106 125.903 5.554C126.09 6.002 126.179 6.562 126.169 7.234L121.577 7.318C121.577 7.822 121.638 8.27467 121.759 8.676C121.89 9.07733 122.1 9.39467 122.389 9.628C122.679 9.86133 123.066 9.978 123.551 9.978C123.738 9.978 123.948 9.94533 124.181 9.88C124.424 9.81467 124.667 9.70733 124.909 9.558C125.161 9.39933 125.395 9.18933 125.609 8.928L126.239 9.516C125.903 9.992 125.544 10.356 125.161 10.608C124.779 10.8507 124.396 11.014 124.013 11.098C123.64 11.182 123.295 11.224 122.977 11.224ZM121.661 6.338H124.237C124.228 5.946 124.172 5.638 124.069 5.414C123.976 5.18067 123.845 5.01267 123.677 4.91C123.509 4.80733 123.313 4.756 123.089 4.756C122.679 4.756 122.357 4.90533 122.123 5.204C121.89 5.49333 121.736 5.87133 121.661 6.338ZM129.965 11.224C129.685 11.224 129.414 11.1913 129.153 11.126C128.901 11.0607 128.667 10.9393 128.453 10.762C128.247 10.5753 128.084 10.3047 127.963 9.95C127.841 9.59533 127.781 9.124 127.781 8.536L127.809 5.162H126.857V4C127.146 3.99067 127.426 3.89267 127.697 3.706C127.967 3.51933 128.196 3.27667 128.383 2.978C128.579 2.67933 128.709 2.36667 128.775 2.04H129.811L129.797 4H131.575V5.078L129.797 5.12L129.783 8.564C129.783 8.77867 129.801 8.99333 129.839 9.208C129.885 9.41333 129.969 9.586 130.091 9.726C130.212 9.85667 130.389 9.922 130.623 9.922C130.753 9.922 130.931 9.87533 131.155 9.782C131.388 9.68867 131.635 9.45533 131.897 9.082L132.569 9.712C132.317 10.0853 132.055 10.3747 131.785 10.58C131.514 10.7853 131.253 10.9347 131.001 11.028C130.758 11.1213 130.543 11.1773 130.357 11.196C130.17 11.2147 130.039 11.224 129.965 11.224ZM135.58 11.042L133.368 6.184C133.265 5.95067 133.191 5.77333 133.144 5.652C133.107 5.53067 133.079 5.428 133.06 5.344C133.051 5.25067 133.032 5.148 133.004 5.036L132.486 5.064V4H135.762V4.896C135.566 4.90533 135.435 4.96133 135.37 5.064C135.305 5.16667 135.281 5.302 135.3 5.47C135.319 5.62867 135.361 5.80133 135.426 5.988L136.154 7.78C136.229 7.95733 136.303 8.13933 136.378 8.326C136.453 8.51267 136.527 8.69933 136.602 8.886H136.616C136.691 8.69 136.761 8.494 136.826 8.298C136.901 8.102 136.971 7.906 137.036 7.71L137.638 6.002C137.722 5.76867 137.797 5.582 137.862 5.442C137.937 5.302 138.016 5.15733 138.1 5.008L137.232 5.064V4H139.892V4.896C139.677 4.93333 139.486 5.05467 139.318 5.26C139.15 5.456 139.005 5.68 138.884 5.932C138.763 6.17467 138.665 6.38933 138.59 6.576L136.798 11.042H135.58ZM143.775 11.224C143.103 11.224 142.496 11.0793 141.955 10.79C141.414 10.5007 140.984 10.09 140.667 9.558C140.359 9.01667 140.205 8.382 140.205 7.654C140.205 6.87933 140.364 6.20267 140.681 5.624C141.008 5.036 141.437 4.58333 141.969 4.266C142.51 3.93933 143.098 3.776 143.733 3.776C144.405 3.776 145.007 3.92067 145.539 4.21C146.071 4.49933 146.491 4.91467 146.799 5.456C147.107 5.988 147.261 6.62733 147.261 7.374C147.261 8.158 147.112 8.83933 146.813 9.418C146.514 9.99667 146.104 10.4447 145.581 10.762C145.058 11.07 144.456 11.224 143.775 11.224ZM143.831 10.23C144.204 10.2207 144.484 10.09 144.671 9.838C144.867 9.586 145.002 9.26867 145.077 8.886C145.152 8.50333 145.189 8.116 145.189 7.724C145.189 7.37867 145.161 7.02867 145.105 6.674C145.058 6.31933 144.979 5.99733 144.867 5.708C144.755 5.41867 144.601 5.18533 144.405 5.008C144.218 4.83067 143.985 4.74667 143.705 4.756C143.341 4.76533 143.052 4.896 142.837 5.148C142.632 5.4 142.482 5.71733 142.389 6.1C142.305 6.47333 142.263 6.86533 142.263 7.276C142.263 7.752 142.314 8.21867 142.417 8.676C142.52 9.13333 142.683 9.51133 142.907 9.81C143.14 10.0993 143.448 10.2393 143.831 10.23Z" fill="white"/>
</svg>
