<?xml version="1.0" encoding="UTF-8" standalone="no"?>
<!-- Created with Inkscape (http://www.inkscape.org/) -->

<svg
   width="32.424057mm"
   height="30.519238mm"
   viewBox="0 0 32.424057 30.519238"
   version="1.1"
   id="svg5"
   xml:space="preserve"
   sodipodi:docname="favicon.svg"
   inkscape:export-filename="favicon.svg"
   inkscape:export-xdpi="300"
   inkscape:export-ydpi="300"
   inkscape:version="1.2.2 (732a01da63, 2022-12-09)"
   xmlns:inkscape="http://www.inkscape.org/namespaces/inkscape"
   xmlns:sodipodi="http://sodipodi.sourceforge.net/DTD/sodipodi-0.dtd"
   xmlns="http://www.w3.org/2000/svg"
   xmlns:svg="http://www.w3.org/2000/svg"><sodipodi:namedview
     id="namedview7"
     pagecolor="#ffffff"
     bordercolor="#000000"
     borderopacity="0.25"
     inkscape:showpageshadow="2"
     inkscape:pageopacity="0.0"
     inkscape:pagecheckerboard="0"
     inkscape:deskcolor="#d1d1d1"
     inkscape:document-units="mm"
     showgrid="false"
     inkscape:zoom="3.4850969"
     inkscape:cx="13.629463"
     inkscape:cy="84.215736"
     inkscape:window-width="1920"
     inkscape:window-height="991"
     inkscape:window-x="-9"
     inkscape:window-y="-9"
     inkscape:window-maximized="1"
     inkscape:current-layer="g1743" /><defs
     id="defs2" /><g
     id="layer1"
     transform="matrix(0.84097641,0,0,0.84097641,-38.345589,-217.34388)"
     style="stroke:none"><g
       id="g1743"
       transform="translate(-14.705043,28.149654)"
       style="stroke:none"><path
         id="rect111-3"
         style="fill:#21a29a;fill-opacity:1;stroke:none;stroke-width:0.79375;stroke-linecap:round;stroke-linejoin:miter;stroke-dasharray:none;stroke-opacity:1"
         d="m 63.913068,233.71342 8.921982,29.59905 h 13.418995 l 9.012752,-29.54574 -14.84141,-0.0258 v 8.46577 c 0.881999,-0.7506 1.563811,-1.17938 2.710856,-1.21192 0.24505,-0.007 0.48972,0.005 0.731959,0.0348 2.680557,0.32836 4.521791,2.75354 4.112555,5.41683 -0.116436,0.75224 -0.408396,1.47216 -0.852537,2.10219 l 0.01108,9.8e-4 -0.158844,0.19975 c -0.01516,0.0195 -0.03046,0.0388 -0.04591,0.0581 l -7.288407,9.17952 -5.12e-4,8.9e-4 -2.64e-4,-2.6e-4 -2.67e-4,2.6e-4 -5.1e-4,-8.9e-4 -7.493166,-9.43731 0.01981,-0.002 c -0.44358,-0.62974 -0.735167,-1.34918 -0.85148,-2.10088 -0.409236,-2.6633 1.431999,-5.08847 4.112557,-5.41683 0.242239,-0.0297 0.486908,-0.0413 0.731957,-0.0348 1.146168,0.0319 1.827417,0.4594 2.70954,1.2085 v -8.46365 l -14.478333,-0.0253 2.6e-4,-8.2e-4 h -0.05725 v 8.2e-4 z m 31.353729,0.0533 0.120583,2.6e-4 -0.107129,-0.0441 z"
         sodipodi:nodetypes="cccccccccccccccccccccccccccccccccc" /></g></g></svg>
