<svg width="1440" height="76" fill="none" xmlns="http://www.w3.org/2000/svg">
<rect opacity="0.8" width="199.08" height="50.6547" transform="matrix(1 0 0 -1 360 50.9648)" fill="#00615A"/>
<rect opacity="0.8" x="1415.16" y="50.9648" width="40.4679" height="50.6547" transform="rotate(180 1415.16 50.9648)" fill="#00615A"/>
<rect opacity="0.8" width="40.4679" height="50.6547" transform="matrix(1 0 0 -1 25.1107 50.9648)" fill="#00615A"/>
<rect x="1440.14" y="50.9648" width="24.9753" height="50.6547" transform="rotate(180 1440.14 50.9648)" fill="#00615A"/>
<rect width="24.9753" height="50.6547" transform="matrix(1 0 0 -1 0.135071 50.9648)" fill="#00615A"/>
<rect opacity="0.2" x="1309.22" y="50.9648" width="105.904" height="50.6547" transform="rotate(180 1309.22 50.9648)" fill="#00615A"/>
<rect opacity="0.2" width="105.904" height="50.6547" transform="matrix(1 0 0 -1 131.055 50.9648)" fill="#00615A"/>
<rect opacity="0.4" x="1203.31" y="50.9648" width="123.04" height="50.6547" transform="rotate(180 1203.31 50.9648)" fill="#00615A"/>
<rect opacity="0.4" width="123.04" height="50.6547" transform="matrix(1 0 0 -1 236.96 50.9648)" fill="#00615A"/>
<rect opacity="0.8" x="1080.27" y="50.9648" width="199.08" height="50.6547" transform="rotate(180 1080.27 50.9648)" fill="#00615A"/>
<rect x="881.191" y="50.9648" width="322.111" height="50.6547" transform="rotate(180 881.191 50.9648)" fill="#00615A"/>
<rect opacity="0.4" x="1374.69" y="50.9648" width="65.477" height="50.6547" transform="rotate(180 1374.69 50.9648)" fill="#00615A"/>
<rect opacity="0.4" width="65.477" height="50.6547" transform="matrix(1 0 0 -1 65.5786 50.9648)" fill="#00615A"/>
<rect opacity="0.4" x="1415.73" y="75.3102" width="40.4679" height="24.3453" transform="rotate(180 1415.73 75.3102)" fill="#00615A"/>
<rect opacity="0.4" width="40.4679" height="24.3453" transform="matrix(1 0 0 -1 25.6758 75.3102)" fill="#00615A"/>
<rect opacity="0.2" x="1440.7" y="75.3102" width="24.9753" height="24.3453" transform="rotate(180 1440.7 75.3102)" fill="#00615A"/>
<rect opacity="0.2" width="24.9753" height="24.3453" transform="matrix(1 0 0 -1 0.700195 75.3102)" fill="#00615A"/>
<rect x="1309.78" y="75.3102" width="105.904" height="24.3453" transform="rotate(180 1309.78 75.3102)" fill="#00615A"/>
<rect width="105.904" height="24.3453" transform="matrix(1 0 0 -1 131.621 75.3102)" fill="#00615A"/>
<rect opacity="0.8" x="1203.88" y="75.3102" width="123.04" height="24.3453" transform="rotate(180 1203.88 75.3102)" fill="#00615A"/>
<rect opacity="0.8" width="123.04" height="24.3453" transform="matrix(1 0 0 -1 237.525 75.3102)" fill="#00615A"/>
<rect opacity="0.4" x="1080.84" y="75.3102" width="199.08" height="24.3453" transform="rotate(180 1080.84 75.3102)" fill="#00615A"/>
<rect opacity="0.4" width="199.08" height="24.3453" transform="matrix(1 0 0 -1 360.565 75.3102)" fill="#00615A"/>
<rect opacity="0.2" x="881.756" y="75.3102" width="322.111" height="24.3453" transform="rotate(180 881.756 75.3102)" fill="#00615A"/>
<rect opacity="0.8" x="1375.26" y="75.3102" width="65.477" height="24.3453" transform="rotate(180 1375.26 75.3102)" fill="#00615A"/>
<rect opacity="0.8" width="65.477" height="24.3453" transform="matrix(1 0 0 -1 66.1438 75.3102)" fill="#00615A"/>
</svg>
