<svg width="1440" height="15" fill="none" xmlns="http://www.w3.org/2000/svg">
<rect opacity="0.4" x="1415.02" y="15" width="40.4679" height="14.6967" transform="rotate(180 1415.02 15)" fill="#2DA29A"/>
<rect opacity="0.4" width="40.4679" height="14.6967" transform="matrix(1 0 0 -1 24.9751 15)" fill="#2DA29A"/>
<rect opacity="0.2" x="1440" y="15" width="24.9753" height="14.6967" transform="rotate(180 1440 15)" fill="#2DA29A"/>
<rect opacity="0.2" width="24.9753" height="14.6967" transform="matrix(1 0 0 -1 -0.000488281 15)" fill="#2DA29A"/>
<rect x="1309.08" y="15" width="105.904" height="14.6967" transform="rotate(180 1309.08 15)" fill="#2DA29A"/>
<rect width="105.904" height="14.6967" transform="matrix(1 0 0 -1 130.92 15)" fill="#2DA29A"/>
<rect opacity="0.8" x="1203.18" y="15" width="123.04" height="14.6967" transform="rotate(180 1203.18 15)" fill="#2DA29A"/>
<rect opacity="0.8" width="123.04" height="14.6967" transform="matrix(1 0 0 -1 236.824 15)" fill="#2DA29A"/>
<rect opacity="0.4" x="1080.14" y="15" width="199.08" height="14.6967" transform="rotate(180 1080.14 15)" fill="#2DA29A"/>
<rect opacity="0.4" width="199.08" height="14.6967" transform="matrix(1 0 0 -1 359.865 15)" fill="#2DA29A"/>
<rect opacity="0.2" x="881.056" y="15" width="322.111" height="14.6967" transform="rotate(180 881.056 15)" fill="#2DA29A"/>
<rect opacity="0.8" x="1374.56" y="15" width="65.477" height="14.6967" transform="rotate(180 1374.56 15)" fill="#2DA29A"/>
<rect opacity="0.8" width="65.477" height="14.6967" transform="matrix(1 0 0 -1 65.4431 15)" fill="#2DA29A"/>
</svg>
