<?xml version="1.0" encoding="UTF-8" standalone="no"?>
<!-- Created with Inkscape (http://www.inkscape.org/) -->

<svg
   width="160.82832mm"
   height="29.714855mm"
   viewBox="0 0 160.82832 29.714855"
   version="1.1"
   id="svg5"
   xml:space="preserve"
   inkscape:version="1.2.1 (9c6d41e410, 2022-07-14)"
   sodipodi:docname="logo.svg"
   inkscape:export-filename="logo.svg"
   inkscape:export-xdpi="300"
   inkscape:export-ydpi="300"
   xmlns:inkscape="http://www.inkscape.org/namespaces/inkscape"
   xmlns:sodipodi="http://sodipodi.sourceforge.net/DTD/sodipodi-0.dtd"
   xmlns="http://www.w3.org/2000/svg"
   xmlns:svg="http://www.w3.org/2000/svg"><sodipodi:namedview
     id="namedview7"
     pagecolor="#ffffff"
     bordercolor="#666666"
     borderopacity="1.0"
     inkscape:showpageshadow="2"
     inkscape:pageopacity="0.0"
     inkscape:pagecheckerboard="0"
     inkscape:deskcolor="#d1d1d1"
     inkscape:document-units="mm"
     showgrid="false"
     showguides="true"
     inkscape:zoom="0.44529645"
     inkscape:cx="200.9897"
     inkscape:cy="47.159594"
     inkscape:window-width="1366"
     inkscape:window-height="705"
     inkscape:window-x="-8"
     inkscape:window-y="-8"
     inkscape:window-maximized="1"
     inkscape:current-layer="layer1"><sodipodi:guide
       position="-10.128646,282.30455"
       orientation="0,-1"
       id="guide573"
       inkscape:locked="false" /></sodipodi:namedview><defs
     id="defs2" /><g
     inkscape:label="Camada 1"
     inkscape:groupmode="layer"
     id="layer1"
     transform="translate(-27.039445,-288.82711)"><g
       id="g1743"
       transform="translate(-14.705043,28.149654)"
       inkscape:export-filename="g1743.png"
       inkscape:export-xdpi="300"
       inkscape:export-ydpi="300"><path
         id="rect111"
         style="fill:#21a29a;fill-opacity:1;stroke-width:0.264583"
         d="m 38.677277,218.19716 8.921982,29.59905 h 13.418995 l 9.012752,-29.54574 -14.741348,-0.0258 v 8.46577 c 0.881999,-0.7506 1.463749,-1.17938 2.610794,-1.21192 0.24505,-0.007 0.48972,0.005 0.731959,0.0348 2.680557,0.32836 4.521791,2.75354 4.112555,5.41683 -0.116436,0.75224 -0.408396,1.47216 -0.852537,2.10219 l 0.01108,9.8e-4 -0.158844,0.19975 c -0.01516,0.0195 -0.03046,0.0388 -0.04591,0.0581 l -7.288407,9.17952 -5.12e-4,8.9e-4 -2.64e-4,-2.6e-4 -2.67e-4,2.6e-4 -5.1e-4,-8.9e-4 -7.493166,-9.43731 0.01981,-0.002 c -0.44358,-0.62974 -0.735167,-1.34918 -0.85148,-2.10088 -0.409236,-2.6633 1.431999,-5.08847 4.112557,-5.41683 0.242239,-0.0297 0.486908,-0.0413 0.731957,-0.0348 1.146168,0.0319 1.727355,0.4594 2.609478,1.2085 v -8.46365 l -14.378271,-0.0253 2.6e-4,-8.2e-4 h -0.05725 v 8.2e-4 z m 31.353729,0.0533 0.120583,2.6e-4 -0.107129,-0.0441 z"
         sodipodi:nodetypes="cccccccccccccccccccccscccccccccccc" /><text
         xml:space="preserve"
         style="font-style:normal;font-variant:normal;font-weight:600;font-stretch:normal;font-size:28.9751px;line-height:1.25;font-family:Montserrat;-inkscape-font-specification:'Montserrat, Semi-Bold';font-variant-ligatures:normal;font-variant-caps:normal;font-variant-numeric:normal;font-variant-east-asian:normal;letter-spacing:0px;word-spacing:0px;fill:#21a29a;fill-opacity:1;stroke:none;stroke-width:0.264583"
         x="66.393265"
         y="247.7092"
         id="text1704"><tspan
           sodipodi:role="line"
           id="tspan1702"
           style="font-style:normal;font-variant:normal;font-weight:600;font-stretch:normal;font-size:28.9751px;font-family:Montserrat;-inkscape-font-specification:'Montserrat, Semi-Bold';font-variant-ligatures:normal;font-variant-caps:normal;font-variant-numeric:normal;font-variant-east-asian:normal;fill:#21a29a;fill-opacity:1;stroke-width:0.264583"
           x="66.393265"
           y="247.7092">elvet<tspan
   style="font-style:normal;font-variant:normal;font-weight:600;font-stretch:normal;font-size:28.9751px;font-family:Montserrat;-inkscape-font-specification:'Montserrat, Semi-Bold';font-variant-ligatures:normal;font-variant-caps:normal;font-variant-numeric:normal;font-variant-east-asian:normal;fill:#21a29a;fill-opacity:1;stroke-width:0.264583"
   id="tspan1700" /></tspan></text><text
         xml:space="preserve"
         style="font-style:normal;font-variant:normal;font-weight:300;font-stretch:normal;font-size:28.9751px;line-height:1.25;font-family:Montserrat;-inkscape-font-specification:'Montserrat, Light';font-variant-ligatures:normal;font-variant-caps:normal;font-variant-numeric:normal;font-variant-east-asian:normal;letter-spacing:0px;word-spacing:0px;fill:#21a29a;fill-opacity:1;stroke:none;stroke-width:0.264583"
         x="139.64305"
         y="247.7092"
         id="text1704-2"><tspan
           sodipodi:role="line"
           id="tspan1702-5"
           style="font-style:normal;font-variant:normal;font-weight:300;font-stretch:normal;font-size:28.9751px;font-family:Montserrat;-inkscape-font-specification:'Montserrat, Light';font-variant-ligatures:normal;font-variant-caps:normal;font-variant-numeric:normal;font-variant-east-asian:normal;fill:#21a29a;fill-opacity:1;stroke-width:0.264583"
           x="139.64305"
           y="247.7092">care</tspan></text><path
         id="rect111-9"
         style="fill:#21a29a;fill-opacity:1;stroke-width:0.264583"
         d="m 41.744488,260.67746 8.921982,29.59905 h 13.418995 l 9.012752,-29.54574 -14.741348,-0.0258 v 8.46577 c 0.881999,-0.7506 1.463749,-1.17938 2.610794,-1.21192 0.24505,-0.007 0.48972,0.005 0.731959,0.0348 2.680557,0.32836 4.521791,2.75354 4.112555,5.41683 -0.116436,0.75224 -0.408396,1.47216 -0.852537,2.10219 l 0.01108,9.8e-4 -0.158844,0.19975 c -0.01516,0.0195 -0.03046,0.0388 -0.04591,0.0581 l -7.288407,9.17952 -5.12e-4,8.9e-4 -2.64e-4,-2.6e-4 -2.67e-4,2.6e-4 -5.1e-4,-8.9e-4 -7.493166,-9.43731 0.01981,-0.002 c -0.44358,-0.62974 -0.735167,-1.34918 -0.85148,-2.10088 -0.409236,-2.6633 1.431999,-5.08847 4.112557,-5.41683 0.242239,-0.0297 0.486908,-0.0413 0.731957,-0.0348 1.146168,0.0319 1.727355,0.4594 2.609478,1.2085 v -8.46365 l -14.378271,-0.0253 2.6e-4,-8.2e-4 h -0.05725 v 8.2e-4 z m 31.353729,0.0533 0.120583,2.6e-4 -0.107129,-0.0441 z"
         sodipodi:nodetypes="cccccccccccccccccccccscccccccccccc" /><g
         aria-label="elvet"
         id="text1704-6"
         style="font-weight:600;font-size:28.9751px;line-height:1.25;font-family:Montserrat;-inkscape-font-specification:'Montserrat, Semi-Bold';letter-spacing:0px;word-spacing:0px;fill:#21a29a;stroke-width:0.264583"><path
           d="m 79.109188,290.39231 q -2.578784,0 -4.520116,-1.01413 -1.912356,-1.0431 -2.984435,-2.83956 -1.043103,-1.79646 -1.043103,-4.08549 0,-2.31801 1.014128,-4.08549 1.043104,-1.79645 2.83956,-2.81058 1.825431,-1.01413 4.143439,-1.01413 2.260058,0 4.027539,0.98515 1.767481,0.98516 2.781609,2.78161 1.014129,1.79646 1.014129,4.23037 0,0.2318 -0.02898,0.52155 0,0.28975 -0.02898,0.55053 h -12.89392 v -2.40494 h 10.981563 l -1.41978,0.75336 q 0.02898,-1.33286 -0.550527,-2.34699 -0.579502,-1.01413 -1.59363,-1.59363 -0.985154,-0.5795 -2.289033,-0.5795 -1.332855,0 -2.346983,0.5795 -0.985153,0.5795 -1.564655,1.62261 -0.550527,1.01413 -0.550527,2.40493 v 0.5795 q 0,1.39081 0.637452,2.46289 0.637452,1.07207 1.796456,1.65158 1.159004,0.5795 2.665709,0.5795 1.30388,0 2.346983,-0.40565 1.043104,-0.40565 1.854407,-1.27491 l 1.941331,2.23109 q -1.043103,1.21695 -2.636734,1.88338 -1.564655,0.63745 -3.592912,0.63745 z"
           id="path277" /><path
           d="m 89.858943,290.18948 v -21.49952 h 3.621887 v 21.49952 z"
           id="path279" /><path
           d="m 102.3472,290.18948 -6.6353,-15.4727 h 3.766763 l 5.708097,13.64727 h -1.85441 l 5.91092,-13.64727 h 3.47701 l -6.63529,15.4727 z"
           id="path281" /><path
           d="m 121.81845,290.39231 q -2.57878,0 -4.52011,-1.01413 -1.91236,-1.0431 -2.98444,-2.83956 -1.0431,-1.79646 -1.0431,-4.08549 0,-2.31801 1.01413,-4.08549 1.0431,-1.79645 2.83956,-2.81058 1.82543,-1.01413 4.14344,-1.01413 2.26006,0 4.02754,0.98515 1.76748,0.98516 2.78161,2.78161 1.01412,1.79646 1.01412,4.23037 0,0.2318 -0.029,0.52155 0,0.28975 -0.029,0.55053 h -12.89391 v -2.40494 h 10.98156 l -1.41978,0.75336 q 0.029,-1.33286 -0.55053,-2.34699 -0.5795,-1.01413 -1.59363,-1.59363 -0.98515,-0.5795 -2.28903,-0.5795 -1.33286,0 -2.34699,0.5795 -0.98515,0.5795 -1.56465,1.62261 -0.55053,1.01413 -0.55053,2.40493 v 0.5795 q 0,1.39081 0.63745,2.46289 0.63746,1.07207 1.79646,1.65158 1.159,0.5795 2.66571,0.5795 1.30388,0 2.34698,-0.40565 1.04311,-0.40565 1.85441,-1.27491 l 1.94133,2.23109 q -1.0431,1.21695 -2.63673,1.88338 -1.56466,0.63745 -3.59292,0.63745 z"
           id="path283" /><path
           d="m 138.39221,290.39231 q -2.54981,0 -3.94062,-1.30388 -1.3908,-1.33285 -1.3908,-3.91164 v -13.87907 h 3.62189 v 13.79215 q 0,1.10105 0.55052,1.70953 0.5795,0.60847 1.59363,0.60847 1.21696,0 2.02826,-0.63745 l 1.01413,2.57879 q -0.63745,0.52155 -1.56466,0.78232 -0.9272,0.26078 -1.91235,0.26078 z m -7.88123,-12.66212 v -2.89751 h 10.31513 v 2.89751 z"
           id="path285" /></g><g
         aria-label="care"
         id="text1704-2-8"
         style="font-weight:300;font-size:28.9751px;line-height:1.25;font-family:Montserrat;-inkscape-font-specification:'Montserrat, Light';letter-spacing:0px;word-spacing:0px;fill:#21a29a;stroke-width:0.264583"><path
           d="m 151.77947,290.30538 q -2.20211,0 -3.94061,-0.98515 -1.70953,-0.98515 -2.72366,-2.72366 -0.98515,-1.7385 -0.98515,-3.96959 0,-2.26006 0.98515,-3.99856 1.01413,-1.73851 2.72366,-2.69469 1.7385,-0.98515 3.94061,-0.98515 1.82543,0 3.30316,0.6954 1.50671,0.69541 2.43391,2.08621 l -1.07208,0.78233 q -0.8113,-1.15901 -2.02825,-1.70953 -1.21696,-0.55053 -2.63674,-0.55053 -1.76748,0 -3.18726,0.8113 -1.3908,0.78233 -2.20211,2.23109 -0.78232,1.41978 -0.78232,3.33213 0,1.91236 0.78232,3.36111 0.81131,1.41978 2.20211,2.23109 1.41978,0.78232 3.18726,0.78232 1.41978,0 2.63674,-0.55052 1.21695,-0.55053 2.02825,-1.70953 l 1.07208,0.78232 q -0.9272,1.39081 -2.43391,2.08621 -1.47773,0.6954 -3.30316,0.6954 z"
           id="path288" /><path
           d="m 171.39562,290.18948 v -3.44803 l -0.058,-0.52155 v -5.67912 q 0,-2.11519 -1.159,-3.21624 -1.13003,-1.10105 -3.33214,-1.10105 -1.56465,0 -2.92648,0.55052 -1.33286,0.52155 -2.28904,1.36183 l -0.72437,-1.0431 q 1.13003,-1.01413 2.72366,-1.56466 1.59363,-0.5795 3.33213,-0.5795 2.81059,0 4.31729,1.41978 1.50671,1.41978 1.50671,4.23037 v 9.59075 z m -5.44732,0.1159 q -1.68055,0 -2.92648,-0.52155 -1.21696,-0.55052 -1.88338,-1.53568 -0.63745,-0.98515 -0.63745,-2.26006 0,-1.159 0.52155,-2.0862 0.55052,-0.95618 1.79645,-1.53568 1.24593,-0.60848 3.33214,-0.60848 h 5.56322 v 1.13003 h -5.53425 q -2.34698,0 -3.30316,0.86925 -0.9272,0.86925 -0.9272,2.17313 0,1.44876 1.10105,2.31801 1.10106,0.86925 3.10034,0.86925 1.91236,0 3.21624,-0.86925 1.33285,-0.86925 1.9703,-2.52083 l 0.40565,0.98515 q -0.60847,1.65158 -2.0862,2.63674 -1.44876,0.95617 -3.70882,0.95617 z"
           id="path290" /><path
           d="m 178.75531,290.18948 v -15.125 h 1.3908 v 4.14344 l -0.14488,-0.4636 q 0.63746,-1.82543 2.14416,-2.81059 1.50671,-0.98515 3.76676,-0.98515 v 1.41978 q -0.0869,0 -0.17385,0 -0.0869,-0.029 -0.17385,-0.029 -2.52083,0 -3.94061,1.59363 -1.41978,1.56465 -1.41978,4.37524 v 7.88122 z"
           id="path292" /><path
           d="m 195.90854,290.30538 q -2.28903,0 -4.05651,-0.98515 -1.73851,-0.98515 -2.75264,-2.72366 -0.98515,-1.7385 -0.98515,-3.96959 0,-2.26006 0.9272,-3.96959 0.95618,-1.7385 2.60776,-2.72366 1.65158,-0.98515 3.70881,-0.98515 2.05723,0 3.67984,0.95618 1.65158,0.95618 2.57878,2.69468 0.95618,1.70953 0.95618,3.96959 0,0.0869 -0.029,0.20283 0,0.0869 0,0.20282 h -13.35752 v -1.13003 h 12.57519 l -0.5795,0.55053 q 0.029,-1.76748 -0.75335,-3.15828 -0.75336,-1.41978 -2.05724,-2.20211 -1.30388,-0.8113 -3.01341,-0.8113 -1.68055,0 -3.01341,0.8113 -1.30388,0.78233 -2.05723,2.20211 -0.75335,1.3908 -0.75335,3.18726 v 0.26077 q 0,1.85441 0.8113,3.30316 0.84028,1.41978 2.28903,2.23109 1.44876,0.78232 3.30316,0.78232 1.44876,0 2.69469,-0.52155 1.2749,-0.52155 2.14416,-1.59363 l 0.84027,0.95618 q -0.98515,1.21695 -2.49185,1.85441 -1.47773,0.60847 -3.21624,0.60847 z"
           id="path294" /></g></g></g></svg>
